<svg width="20" height="20" viewBox="0 0 20 20" fill="none" xmlns="http://www.w3.org/2000/svg">
<path d="M18.7766 9.71903L19.9951 9.68C19.9893 9.49353 19.9407 9.31089 19.8531 9.14615C19.7656 8.9814 19.6414 8.83893 19.4902 8.72971C19.3389 8.62049 19.1646 8.54742 18.9807 8.51614C18.7968 8.48486 18.6081 8.49619 18.4293 8.54927L18.7766 9.71903ZM10.282 1.2244L11.4507 1.57074C11.5038 1.39181 11.5151 1.20308 11.4838 1.01908C11.4525 0.835088 11.3793 0.660742 11.27 0.509472C11.1607 0.358202 11.0181 0.234045 10.8532 0.146564C10.6883 0.0590825 10.5056 0.0106117 10.319 0.00488461L10.282 1.2244ZM18.4293 8.54927C17.9101 8.70243 17.3706 8.7803 16.8293 8.78049V11.2195C17.6058 11.2195 18.3782 11.1078 19.1229 10.8878L18.4293 8.54927ZM16.8293 8.78049C15.3415 8.78049 13.9146 8.18946 12.8626 7.13743C11.8105 6.0854 11.2195 4.65854 11.2195 3.17074H8.78049C8.78049 5.30541 9.62848 7.35264 11.1379 8.86208C12.6474 10.3715 14.6946 11.2195 16.8293 11.2195V8.78049ZM11.2195 3.17074C11.2195 2.61269 11.3005 2.0761 11.4507 1.57074L9.1122 0.878055C8.89232 1.62244 8.78061 2.39456 8.78049 3.17074H11.2195ZM10 2.43903C10.0807 2.43903 10.162 2.44033 10.2439 2.44293L10.32 0.00488461C10.2134 0.00150905 10.1067 -0.000117184 10 6.563e-06V2.43903ZM2.43902 10C2.43902 7.99471 3.23562 6.07155 4.65358 4.65359C6.07154 3.23563 7.9947 2.43903 10 2.43903V6.563e-06C4.47805 6.563e-06 0 4.47805 0 10H2.43902ZM10 17.561C7.9947 17.561 6.07154 16.7644 4.65358 15.3464C3.23562 13.9285 2.43902 12.0053 2.43902 10H0C0 15.522 4.47805 20 10 20V17.561ZM17.561 10C17.561 12.0053 16.7644 13.9285 15.3464 15.3464C13.9285 16.7644 12.0053 17.561 10 17.561V20C15.522 20 20 15.522 20 10H17.561ZM17.5571 9.7561C17.5597 9.83805 17.561 9.91935 17.561 10H20C20 9.89269 19.9984 9.78602 19.9951 9.68L17.5571 9.7561Z" fill="#3A3A74"/>
</svg>
