<svg width="19" height="18" viewBox="0 0 19 18" fill="none" xmlns="http://www.w3.org/2000/svg">
<path d="M14.375 5V3C14.375 2.46957 14.126 1.96086 13.6827 1.58579C13.2394 1.21071 12.6382 1 12.0114 1H3.73864C3.11176 1 2.51056 1.21071 2.06729 1.58579C1.62403 1.96086 1.375 2.46957 1.375 3V15C1.375 15.5304 1.62403 16.0391 2.06729 16.4142C2.51056 16.7893 3.11176 17 3.73864 17H12.0114C12.6382 17 13.2394 16.7893 13.6827 16.4142C14.126 16.0391 14.375 15.5304 14.375 15V13" stroke="#3A3A74" stroke-width="2" stroke-linecap="round" stroke-linejoin="round"/>
<path d="M17.625 10H4.625M4.625 10L7.625 7M4.625 10L7.625 13" stroke="#3A3A74" stroke-width="2" stroke-linecap="round" stroke-linejoin="round"/>
</svg>
