<svg width="26" height="22" viewBox="0 0 26 22" fill="none" xmlns="http://www.w3.org/2000/svg">
<path d="M24.5785 19.4221L21.6006 16.4353L22.496 15.5449L25.5 18.5059L24.5785 19.4221ZM20.4188 4.36506L19.5233 3.47471L22.5012 0.51247L23.4227 1.40412L20.4188 4.36506ZM5.58122 4.39094L2.60199 1.40282L3.49875 0.511176L6.50271 3.47341L5.58122 4.39094ZM1.39676 19.4208L0.5 18.5046L3.47923 15.5424L4.39942 16.434L1.39676 19.4208ZM7.74828 19.2591L13 16.1286L18.2764 19.3173L16.902 13.3902L21.5147 9.43671L15.4378 8.89318L13 3.29612L10.5869 8.85824L4.51005 9.37847L9.12271 13.3876L7.74828 19.2591ZM5.76603 22L7.6793 13.8794L1.28613 8.38718L9.7071 7.678L13 0L16.3189 7.678L24.7399 8.38718L18.3467 13.8794L20.26 22L13 17.6776L5.76603 22Z" fill="#493D78"/>
</svg>
