<svg width="26" height="26" viewBox="0 0 26 26" fill="none" xmlns="http://www.w3.org/2000/svg">
<path d="M21.75 3H19.25V1.75C19.25 1.41848 19.1183 1.10054 18.8839 0.866116C18.6495 0.631696 18.3315 0.5 18 0.5C17.6685 0.5 17.3505 0.631696 17.1161 0.866116C16.8817 1.10054 16.75 1.41848 16.75 1.75V3H9.25V1.75C9.25 1.41848 9.1183 1.10054 8.88388 0.866116C8.64946 0.631696 8.33152 0.5 8 0.5C7.66848 0.5 7.35054 0.631696 7.11612 0.866116C6.8817 1.10054 6.75 1.41848 6.75 1.75V3H4.25C3.25544 3 2.30161 3.39509 1.59835 4.09835C0.895088 4.80161 0.5 5.75544 0.5 6.75V21.75C0.5 22.7446 0.895088 23.6984 1.59835 24.4017C2.30161 25.1049 3.25544 25.5 4.25 25.5H21.75C22.7446 25.5 23.6984 25.1049 24.4017 24.4017C25.1049 23.6984 25.5 22.7446 25.5 21.75V6.75C25.5 5.75544 25.1049 4.80161 24.4017 4.09835C23.6984 3.39509 22.7446 3 21.75 3ZM23 21.75C23 22.0815 22.8683 22.3995 22.6339 22.6339C22.3995 22.8683 22.0815 23 21.75 23H4.25C3.91848 23 3.60054 22.8683 3.36612 22.6339C3.1317 22.3995 3 22.0815 3 21.75V13H23V21.75ZM23 10.5H3V6.75C3 6.41848 3.1317 6.10054 3.36612 5.86612C3.60054 5.6317 3.91848 5.5 4.25 5.5H6.75V6.75C6.75 7.08152 6.8817 7.39946 7.11612 7.63388C7.35054 7.8683 7.66848 8 8 8C8.33152 8 8.64946 7.8683 8.88388 7.63388C9.1183 7.39946 9.25 7.08152 9.25 6.75V5.5H16.75V6.75C16.75 7.08152 16.8817 7.39946 17.1161 7.63388C17.3505 7.8683 17.6685 8 18 8C18.3315 8 18.6495 7.8683 18.8839 7.63388C19.1183 7.39946 19.25 7.08152 19.25 6.75V5.5H21.75C22.0815 5.5 22.3995 5.6317 22.6339 5.86612C22.8683 6.10054 23 6.41848 23 6.75V10.5Z" fill="url(#paint0_linear_897_1796)"/>
<defs>
<linearGradient id="paint0_linear_897_1796" x1="13" y1="0.5" x2="13" y2="25.5" gradientUnits="userSpaceOnUse">
<stop offset="1" stop-color="#DDB7EF"/>
</linearGradient>
</defs>
</svg>
