<svg width="20" height="17" viewBox="0 0 20 17" fill="none" xmlns="http://www.w3.org/2000/svg">
<path d="M8 7C8 7.53043 8.21071 8.03914 8.58579 8.41421C8.96086 8.78929 9.46957 9 10 9C10.5304 9 11.0391 8.78929 11.4142 8.41421C11.7893 8.03914 12 7.53043 12 7C12 6.46957 11.7893 5.96086 11.4142 5.58579C11.0391 5.21071 10.5304 5 10 5C9.46957 5 8.96086 5.21071 8.58579 5.58579C8.21071 5.96086 8 6.46957 8 7Z" stroke="#FAD4E8" stroke-width="2" stroke-linecap="round" stroke-linejoin="round"/>
<path d="M9.102 12.957C5.89867 12.649 3.198 10.6633 1 7C3.4 3 6.4 1 10 1C13.6 1 16.6 3 19 7C18.7896 7.3507 18.5685 7.69486 18.337 8.032M13 14L15 16L19 12" stroke="#FAD4E8" stroke-width="2" stroke-linecap="round" stroke-linejoin="round"/>
</svg>
