<svg width="26" height="26" viewBox="0 0 26 26" fill="none" xmlns="http://www.w3.org/2000/svg">
<path d="M1.75 13C1.75 14.4774 2.04099 15.9403 2.60636 17.3052C3.17172 18.6701 4.00039 19.9103 5.04505 20.955C6.08971 21.9996 7.3299 22.8283 8.69481 23.3936C10.0597 23.959 11.5226 24.25 13 24.25C14.4774 24.25 15.9403 23.959 17.3052 23.3936C18.6701 22.8283 19.9103 21.9996 20.955 20.955C21.9996 19.9103 22.8283 18.6701 23.3936 17.3052C23.959 15.9403 24.25 14.4774 24.25 13C24.25 10.0163 23.0647 7.15483 20.955 5.04505C18.8452 2.93526 15.9837 1.75 13 1.75C10.0163 1.75 7.15483 2.93526 5.04505 5.04505C2.93526 7.15483 1.75 10.0163 1.75 13Z" stroke="#DDB7EF" stroke-width="2" stroke-linecap="round" stroke-linejoin="round"/>
<path d="M13 7V13.25L18 17" stroke="#DDB7EF" stroke-width="2" stroke-linecap="round" stroke-linejoin="round"/>
</svg>
