<svg width="26" height="26" viewBox="0 0 26 26" fill="none" xmlns="http://www.w3.org/2000/svg">
<path d="M16.2499 15.1668C19.1424 15.1668 24.9165 16.6077 24.9165 19.5002V21.6668H7.58321V19.5002C7.58321 16.6077 13.3574 15.1668 16.2499 15.1668ZM16.2499 13.0002C15.1006 13.0002 13.9984 12.5436 13.1857 11.731C12.3731 10.9183 11.9165 9.8161 11.9165 8.66683C11.9165 7.51756 12.3731 6.41536 13.1857 5.6027C13.9984 4.79004 15.1006 4.3335 16.2499 4.3335C17.3991 4.3335 18.5013 4.79004 19.314 5.6027C20.1267 6.41536 20.5832 7.51756 20.5832 8.66683C20.5832 9.8161 20.1267 10.9183 19.314 11.731C18.5013 12.5436 17.3991 13.0002 16.2499 13.0002ZM5.41654 10.3893L7.71321 8.08183L9.25154 9.62016L6.94404 11.9168L9.25154 14.2135L7.71321 15.7518L5.41654 13.4443L3.11988 15.7518L1.58154 14.2135L3.88904 11.9168L1.58154 9.62016L3.11988 8.08183L5.41654 10.3893Z" fill="#3A3A74"/>
</svg>
