<svg width="22" height="20" viewBox="0 0 22 20" fill="none" xmlns="http://www.w3.org/2000/svg">
<path d="M9.27626 9.82962C8.38852 9.82962 7.52071 9.54137 6.78258 9.00133C6.04445 8.46128 5.46914 7.69369 5.12942 6.79563C4.78969 5.89756 4.7008 4.90936 4.87399 3.95598C5.04718 3.0026 5.47467 2.12686 6.1024 1.43952C6.73013 0.752168 7.52991 0.284078 8.4006 0.0944389C9.27128 -0.0952001 10.1738 0.00212952 10.9939 0.37412C11.8141 0.74611 12.5151 1.37605 13.0083 2.18429C13.5015 2.99253 13.7648 3.94275 13.7648 4.91481C13.7616 6.21724 13.2877 7.46533 12.4466 8.38629C11.6056 9.30724 10.4657 9.82616 9.27626 9.82962ZM9.27626 1.96593C8.74362 1.96593 8.22293 2.13888 7.78005 2.4629C7.33717 2.78693 6.99199 3.24748 6.78815 3.78632C6.58432 4.32516 6.53099 4.91808 6.6349 5.49011C6.73882 6.06214 6.99531 6.58758 7.37195 6.99999C7.74858 7.4124 8.22845 7.69325 8.75086 7.80704C9.27328 7.92082 9.81477 7.86242 10.3069 7.63923C10.799 7.41603 11.2196 7.03807 11.5155 6.55312C11.8114 6.06818 11.9694 5.49805 11.9694 4.91481C11.9694 4.13272 11.6856 3.38266 11.1806 2.82963C10.6755 2.27661 9.99052 1.96593 9.27626 1.96593ZM0.897703 19.0039C0.659617 19.0039 0.431283 18.9004 0.262931 18.716C0.0945793 18.5317 0 18.2817 0 18.021C0 11.7955 6.49937 11.7955 9.27626 11.7955C10.1381 11.7955 10.9041 11.7955 11.5983 11.8873C11.8345 11.9074 12.0538 12.0289 12.2085 12.2253C12.3632 12.4217 12.4407 12.6771 12.4242 12.9358C12.4029 13.1955 12.2894 13.4356 12.1081 13.6047C11.9268 13.7738 11.6922 13.8583 11.4547 13.8401C10.8083 13.8401 10.0902 13.7615 9.27626 13.7615C3.07613 13.7615 1.79541 15.4653 1.79541 18.021C1.79702 18.1505 1.7749 18.2792 1.73035 18.3992C1.68581 18.5193 1.61974 18.6283 1.53606 18.72C1.45238 18.8116 1.35278 18.8839 1.24313 18.9327C1.13349 18.9815 1.01604 19.0057 0.897703 19.0039ZM11.8018 20C11.5638 19.9998 11.3356 19.8961 11.1674 19.7117C11.0729 19.613 11.0001 19.4922 10.9545 19.3582C10.9088 19.2243 10.8916 19.0807 10.9041 18.9384L11.0956 16.422C11.1104 16.1906 11.1994 15.9725 11.347 15.806L17.9541 8.57143C18.4099 8.10901 19.0084 7.85211 19.6298 7.85211C20.2512 7.85211 20.8496 8.10901 21.3055 8.57143C21.5302 8.81947 21.7074 9.1142 21.8266 9.43831C21.9459 9.76242 22.0047 10.1094 21.9997 10.4587C22.0044 10.7807 21.9507 11.1006 21.8418 11.3998C21.7329 11.699 21.571 11.9716 21.3653 12.2018L14.7582 19.4364C14.6117 19.6009 14.4166 19.7031 14.2076 19.7248L11.8856 19.9607L11.8018 20ZM12.8551 16.9332L12.7833 17.9292L13.7169 17.8375L20.0966 10.8519C20.1709 10.7524 20.2092 10.6265 20.2043 10.498C20.2028 10.3158 20.1436 10.1397 20.0367 10C19.9191 9.90425 19.7764 9.85255 19.6298 9.85255C19.4832 9.85255 19.3405 9.90425 19.2228 10L12.8551 16.9332Z" fill="#3A3A74"/>
</svg>
