<svg width="75" height="75" viewBox="0 0 75 75" fill="none" xmlns="http://www.w3.org/2000/svg">
<path d="M26.1269 2.46679C18.6333 5.06641 12.1708 10.0006 7.68861 16.5445C3.20647 23.0885 0.940956 30.8973 1.22485 38.824C1.50874 46.7507 4.32707 54.3774 9.26587 60.584C14.2047 66.7906 21.0036 71.2498 28.6641 73.3066C34.8745 74.9092 41.3813 74.9795 47.625 73.5117C53.2812 72.2412 58.5104 69.5236 62.8008 65.625C67.2661 61.4434 70.5072 56.1239 72.1758 50.2383C73.9894 43.8379 74.3121 37.107 73.1191 30.5625H38.2441V45.0293H58.4414C58.0377 47.3366 57.1727 49.5388 55.8981 51.5041C54.6235 53.4693 52.9656 55.1572 51.0234 56.4668C48.5571 58.0982 45.7769 59.1959 42.8613 59.6895C39.9372 60.2332 36.9378 60.2332 34.0137 59.6895C31.0499 59.0767 28.2463 57.8535 25.7812 56.0977C21.8212 53.2945 18.8477 49.3121 17.2851 44.7188C15.6962 40.0394 15.6962 34.9664 17.2851 30.2871C18.3974 27.0071 20.2361 24.0207 22.6641 21.5508C25.4425 18.6723 28.9601 16.6148 32.831 15.604C36.7018 14.5931 40.7763 14.6679 44.6074 15.8203C47.6002 16.739 50.337 18.3442 52.5996 20.5078C54.8769 18.2422 57.1504 15.9707 59.4199 13.6934C60.5918 12.4687 61.8691 11.3027 63.0234 10.0488C59.5697 6.83482 55.5157 4.33392 51.0937 2.68945C43.0412 -0.234438 34.2303 -0.313015 26.1269 2.46679Z" fill="white"/>
<path d="M26.127 2.46671C34.2297 -0.314986 43.0406 -0.238478 51.0937 2.68351C55.5165 4.33915 59.5687 6.85209 63.0176 10.078C61.8457 11.3319 60.6094 12.5038 59.4141 13.7226C57.1406 15.9921 54.8691 18.2538 52.5996 20.5077C50.337 18.3441 47.6002 16.7389 44.6074 15.8202C40.7776 14.6638 36.7032 14.5846 32.8314 15.5914C28.9595 16.5981 25.4397 18.6518 22.6582 21.5273C20.2303 23.9972 18.3916 26.9836 17.2793 30.2636L5.13281 20.8593C9.48052 12.2376 17.0083 5.64263 26.127 2.46671Z" fill="#E33629"/>
<path d="M1.91017 30.1758C2.56303 26.9402 3.64691 23.8068 5.13283 20.8594L17.2793 30.2871C15.6903 34.9664 15.6903 40.0394 17.2793 44.7187C13.2324 47.8437 9.18361 50.9844 5.13283 54.1406C1.41301 46.7362 0.278525 38.2998 1.91017 30.1758Z" fill="#F8BD00"/>
<path d="M38.2441 30.5566H73.1191C74.3121 37.1012 73.9894 43.832 72.1758 50.2324C70.5072 56.118 67.2661 61.4376 62.8008 65.6191C58.8808 62.5605 54.9433 59.5254 51.0234 56.4668C52.9668 55.1559 54.6256 53.4662 55.9002 51.4988C57.1749 49.5315 58.0392 47.327 58.4414 45.0176H38.2441C38.2383 40.2012 38.2441 35.3789 38.2441 30.5566Z" fill="#587DBD"/>
<path d="M5.12695 54.1406C9.17773 51.0156 13.2266 47.875 17.2734 44.7188C18.8391 49.3137 21.8168 53.2963 25.7812 56.0977C28.254 57.8453 31.0637 59.0586 34.0313 59.6602C36.9554 60.2039 39.9548 60.2039 42.8789 59.6602C45.7945 59.1666 48.5747 58.0689 51.041 56.4375C54.9609 59.4961 58.8984 62.5313 62.8184 65.5898C58.5287 69.4906 53.2993 72.2102 47.6426 73.4824C41.3989 74.9502 34.8921 74.8799 28.6816 73.2773C23.7697 71.9659 19.1817 69.6539 15.2051 66.4863C10.9961 63.1447 7.55833 58.9334 5.12695 54.1406Z" fill="#319F43"/>
</svg>
