<svg width="16" height="17" viewBox="0 0 16 17" fill="none" xmlns="http://www.w3.org/2000/svg">
<path d="M14.5455 5.59037C14.9312 5.59037 15.3012 5.74363 15.574 6.01642C15.8468 6.28922 16 6.6592 16 7.04499V9.95422C16 10.34 15.8468 10.71 15.574 10.9828C15.3012 11.2556 14.9312 11.4088 14.5455 11.4088H13.7731C13.5959 12.815 12.9117 14.1082 11.8487 15.0456C10.7858 15.983 9.41722 16.5001 8 16.5V15.0454C9.15731 15.0454 10.2672 14.5856 11.0856 13.7672C11.9039 12.9489 12.3636 11.8389 12.3636 10.6815V6.31768C12.3636 5.16032 11.9039 4.05036 11.0856 3.23198C10.2672 2.4136 9.15731 1.95383 8 1.95383C6.84269 1.95383 5.73278 2.4136 4.91444 3.23198C4.0961 4.05036 3.63636 5.16032 3.63636 6.31768V11.4088H1.45455C1.06878 11.4088 0.698807 11.2556 0.426027 10.9828C0.153246 10.71 0 10.34 0 9.95422V7.04499C0 6.6592 0.153246 6.28922 0.426027 6.01642C0.698807 5.74363 1.06878 5.59037 1.45455 5.59037H2.22691C2.40439 4.18441 3.08879 2.89153 4.15169 1.95433C5.21459 1.01712 6.58295 0.5 8 0.5C9.41705 0.5 10.7854 1.01712 11.8483 1.95433C12.9112 2.89153 13.5956 4.18441 13.7731 5.59037H14.5455ZM4.91636 11.2525L5.68727 10.019C6.38039 10.4533 7.18207 10.6829 8 10.6815C8.81793 10.6829 9.61961 10.4533 10.3127 10.019L11.0836 11.2525C10.1595 11.8316 9.09059 12.1379 8 12.1361C6.90941 12.1379 5.84049 11.8316 4.91636 11.2525Z" fill="#3A3A74"/>
</svg>
