<svg width="17" height="17" viewBox="0 0 17 17" fill="none" xmlns="http://www.w3.org/2000/svg">
<path d="M13 4.75V2.875C13 2.37772 12.7701 1.90081 12.361 1.54917C11.9518 1.19754 11.3968 1 10.8182 1H3.18182C2.60316 1 2.04821 1.19754 1.63904 1.54917C1.22987 1.90081 1 2.37772 1 2.875V14.125C1 14.6223 1.22987 15.0992 1.63904 15.4508C2.04821 15.8025 2.60316 16 3.18182 16H10.8182C11.3968 16 11.9518 15.8025 12.361 15.4508C12.7701 15.0992 13 14.6223 13 14.125V12.25" stroke="#DDB7EF" stroke-width="2" stroke-linecap="round" stroke-linejoin="round"/>
<path d="M15.9531 10H4.95312M4.95312 10L7.49159 7.5M4.95312 10L7.49159 12.5" stroke="#DDB7EF" stroke-width="2" stroke-linecap="round" stroke-linejoin="round"/>
</svg>
