<svg width="27" height="27" viewBox="0 0 27 27" fill="none" xmlns="http://www.w3.org/2000/svg">
<path d="M14.374 5.49989L19.3353 10.4476M4.26367 23.906H22.7362M4.66192 18.8266L5.21655 14.9735C5.24639 14.7218 5.36293 14.4883 5.54617 14.3131L16.4193 3.44114C16.5591 3.29862 16.7333 3.19463 16.9251 3.13925C17.1169 3.08386 17.3197 3.07896 17.5139 3.12501C18.5171 3.39132 19.4292 3.92476 20.1532 4.66851C20.9018 5.39084 21.44 6.30312 21.7102 7.30776C21.7518 7.50223 21.7447 7.70398 21.6893 7.895C21.6339 8.08601 21.5321 8.26034 21.3929 8.40239L10.5209 19.2744C10.3335 19.4475 10.0997 19.5624 9.84817 19.6051L5.98155 20.1586C5.80144 20.183 5.61814 20.1652 5.44608 20.1066C5.27401 20.0481 5.11788 19.9504 4.98997 19.8213C4.86206 19.6922 4.76585 19.5352 4.70893 19.3626C4.65201 19.19 4.63591 19.0065 4.66192 18.8266Z" stroke="#3A3A74" stroke-width="1.5" stroke-linecap="round" stroke-linejoin="round"/>
</svg>
