<svg width="21" height="23" viewBox="0 0 21 23" fill="none" xmlns="http://www.w3.org/2000/svg">
<path d="M11.1104 3.40614L16.0716 8.35389M1 21.8123H19.4725M1.39825 16.7329L1.95288 12.8798C1.98271 12.628 2.09926 12.3945 2.2825 12.2194L13.1556 1.34739C13.2954 1.20487 13.4696 1.10088 13.6614 1.0455C13.8532 0.99011 14.056 0.985207 14.2502 1.03126C15.2534 1.29757 16.1656 1.83101 16.8895 2.57476C17.6382 3.29709 18.1764 4.20937 18.4465 5.21401C18.4882 5.40848 18.481 5.61023 18.4256 5.80125C18.3703 5.99226 18.2684 6.16659 18.1293 6.30864L7.25725 17.1806C7.0698 17.3538 6.83607 17.4687 6.5845 17.5114L2.71787 18.0649C2.53776 18.0892 2.35447 18.0714 2.1824 18.0129C2.01034 17.9543 1.85421 17.8567 1.7263 17.7276C1.59839 17.5985 1.50218 17.4414 1.44526 17.2688C1.38833 17.0962 1.37224 16.9128 1.39825 16.7329Z" stroke="#FCF3FB" stroke-width="1.5" stroke-linecap="round" stroke-linejoin="round"/>
</svg>
