<svg width="23" height="23" viewBox="0 0 23 23" fill="none" xmlns="http://www.w3.org/2000/svg">
<path d="M11.25 22.5C5.03663 22.5 0 17.4634 0 11.25C0 5.03663 5.03663 0 11.25 0C17.4634 0 22.5 5.03663 22.5 11.25C22.5 17.4634 17.4634 22.5 11.25 22.5ZM11.25 20.25C13.6369 20.25 15.9261 19.3018 17.614 17.614C19.3018 15.9261 20.25 13.6369 20.25 11.25C20.25 8.86305 19.3018 6.57387 17.614 4.88604C15.9261 3.19821 13.6369 2.25 11.25 2.25C8.86305 2.25 6.57387 3.19821 4.88604 4.88604C3.19821 6.57387 2.25 8.86305 2.25 11.25C2.25 13.6369 3.19821 15.9261 4.88604 17.614C6.57387 19.3018 8.86305 20.25 11.25 20.25ZM6.75 12.375H15.75C15.75 13.5685 15.2759 14.7131 14.432 15.557C13.5881 16.4009 12.4435 16.875 11.25 16.875C10.0565 16.875 8.91193 16.4009 8.06802 15.557C7.22411 14.7131 6.75 13.5685 6.75 12.375ZM6.75 10.125C6.30245 10.125 5.87322 9.94721 5.55676 9.63074C5.24029 9.31428 5.0625 8.88505 5.0625 8.4375C5.0625 7.98995 5.24029 7.56072 5.55676 7.24426C5.87322 6.92779 6.30245 6.75 6.75 6.75C7.19755 6.75 7.62678 6.92779 7.94324 7.24426C8.25971 7.56072 8.4375 7.98995 8.4375 8.4375C8.4375 8.88505 8.25971 9.31428 7.94324 9.63074C7.62678 9.94721 7.19755 10.125 6.75 10.125ZM15.75 10.125C15.3024 10.125 14.8732 9.94721 14.5568 9.63074C14.2403 9.31428 14.0625 8.88505 14.0625 8.4375C14.0625 7.98995 14.2403 7.56072 14.5568 7.24426C14.8732 6.92779 15.3024 6.75 15.75 6.75C16.1976 6.75 16.6268 6.92779 16.9432 7.24426C17.2597 7.56072 17.4375 7.98995 17.4375 8.4375C17.4375 8.88505 17.2597 9.31428 16.9432 9.63074C16.6268 9.94721 16.1976 10.125 15.75 10.125Z" fill="#FCF3FB"/>
</svg>
