<svg width="27" height="27" viewBox="0 0 27 27" fill="none" xmlns="http://www.w3.org/2000/svg">
<path d="M13.5 24.75C7.28663 24.75 2.25 19.7134 2.25 13.5C2.25 7.28663 7.28663 2.25 13.5 2.25C19.7134 2.25 24.75 7.28663 24.75 13.5C24.75 19.7134 19.7134 24.75 13.5 24.75ZM13.5 22.5C15.8869 22.5 18.1761 21.5518 19.864 19.864C21.5518 18.1761 22.5 15.8869 22.5 13.5C22.5 11.1131 21.5518 8.82387 19.864 7.13604C18.1761 5.44821 15.8869 4.5 13.5 4.5C11.1131 4.5 8.82387 5.44821 7.13604 7.13604C5.44821 8.82387 4.5 11.1131 4.5 13.5C4.5 15.8869 5.44821 18.1761 7.13604 19.864C8.82387 21.5518 11.1131 22.5 13.5 22.5ZM9 14.625H18C18 15.8185 17.5259 16.9631 16.682 17.807C15.8381 18.6509 14.6935 19.125 13.5 19.125C12.3065 19.125 11.1619 18.6509 10.318 17.807C9.47411 16.9631 9 15.8185 9 14.625ZM9 12.375C8.55245 12.375 8.12322 12.1972 7.80676 11.8807C7.49029 11.5643 7.3125 11.1351 7.3125 10.6875C7.3125 10.2399 7.49029 9.81072 7.80676 9.49426C8.12322 9.17779 8.55245 9 9 9C9.44755 9 9.87678 9.17779 10.1932 9.49426C10.5097 9.81072 10.6875 10.2399 10.6875 10.6875C10.6875 11.1351 10.5097 11.5643 10.1932 11.8807C9.87678 12.1972 9.44755 12.375 9 12.375ZM18 12.375C17.5524 12.375 17.1232 12.1972 16.8068 11.8807C16.4903 11.5643 16.3125 11.1351 16.3125 10.6875C16.3125 10.2399 16.4903 9.81072 16.8068 9.49426C17.1232 9.17779 17.5524 9 18 9C18.4476 9 18.8768 9.17779 19.1932 9.49426C19.5097 9.81072 19.6875 10.2399 19.6875 10.6875C19.6875 11.1351 19.5097 11.5643 19.1932 11.8807C18.8768 12.1972 18.4476 12.375 18 12.375Z" fill="#3A3A74"/>
</svg>
