<svg width="37" height="37" viewBox="0 0 37 37" fill="none" xmlns="http://www.w3.org/2000/svg">
<path d="M17.499 7.5C17.6438 7.5 17.7975 7.54066 17.9648 7.64062C18.0958 7.71898 18.2017 7.83844 18.2773 8.02832L18.2783 8.03027L20.7969 14.2891L20.9111 14.5723L21.2148 14.6006L27.7119 15.1963C27.9501 15.2334 28.0917 15.3078 28.1768 15.3857C28.2873 15.4871 28.3787 15.6245 28.4443 15.8135C28.504 15.9854 28.5161 16.1581 28.4785 16.3408C28.4462 16.4978 28.3643 16.648 28.2061 16.7959L23.2754 21.2559L23.0596 21.4512L23.123 21.7354L24.6006 28.3809C24.6479 28.5963 24.6269 28.7592 24.5664 28.8926C24.4852 29.0715 24.3755 29.2132 24.2373 29.3252C24.1161 29.4234 23.975 29.4813 23.8008 29.4971C23.6579 29.51 23.5134 29.4769 23.3525 29.3691L23.3408 29.3613L17.7666 25.8457L17.499 25.6768L17.2324 25.8457L11.6582 29.3613L11.6475 29.3682C11.486 29.4757 11.3405 29.5096 11.1963 29.4971C11.0234 29.482 10.8835 29.4245 10.7627 29.3262C10.6234 29.2126 10.5139 29.0699 10.4326 28.8916C10.3726 28.7599 10.351 28.5976 10.3984 28.3809L11.876 21.7354L11.9385 21.4512L11.7227 21.2559L6.79199 16.7959C6.63522 16.6475 6.55379 16.496 6.52148 16.3389C6.48388 16.1556 6.49579 15.9832 6.55469 15.8125C6.61924 15.6256 6.71052 15.4883 6.82227 15.3857C6.90896 15.3063 7.05179 15.2312 7.29102 15.1953L13.7842 14.6006L14.0879 14.5723L14.2021 14.2891L16.7207 8.03027L16.7217 8.02832C16.7973 7.83841 16.9032 7.71897 17.0342 7.64062C17.2014 7.54076 17.3544 7.50007 17.499 7.5ZM17.0371 11.8027L15.2031 16.2695L10.6025 16.6992L9.47852 16.8037L10.3115 17.5654L13.8252 20.7812L12.7803 25.5273L12.5225 26.6982L13.5352 26.0576L17.4971 23.5547L21.4609 26.0918L22.4766 26.7412L22.2188 25.5635L21.1729 20.7822L24.6855 17.6025L25.5283 16.8398L24.3965 16.7344L19.7959 16.3047L17.9629 11.8047L17.501 10.6719L17.0371 11.8027Z" fill="#FFF835" stroke="#DED702"/>
</svg>
