<svg width="30" height="30" viewBox="0 0 30 30" fill="none" xmlns="http://www.w3.org/2000/svg">
<path d="M25.5 1.5H22.5C22.1022 1.5 21.7206 1.65804 21.4393 1.93934C21.158 2.22064 21 2.60218 21 3V28.488H27V3C27 2.60218 26.842 2.22064 26.5607 1.93934C26.2794 1.65804 25.8978 1.5 25.5 1.5ZM16.5 10.5H13.5C13.1022 10.5 12.7206 10.658 12.4393 10.9393C12.158 11.2206 12 11.6022 12 12V28.488H18V12C18 11.6022 17.842 11.2206 17.5607 10.9393C17.2794 10.658 16.8978 10.5 16.5 10.5ZM7.5 19.5H4.5C4.10218 19.5 3.72064 19.658 3.43934 19.9393C3.15804 20.2206 3 20.6022 3 21V28.488H9V21C9 20.6022 8.84196 20.2206 8.56066 19.9393C8.27936 19.658 7.89782 19.5 7.5 19.5Z" fill="#493D78"/>
</svg>
