<svg width="109" height="110" viewBox="0 0 109 110" fill="none" xmlns="http://www.w3.org/2000/svg">
<path fill-rule="evenodd" clip-rule="evenodd" d="M72.4516 86.3239L72.4053 86.3299L72.1315 86.4355L72.0543 86.4475L72.0003 86.4355L71.7265 86.3269C71.6853 86.3189 71.6545 86.3249 71.6339 86.345L71.6185 86.3752L71.5529 87.6661L71.5722 87.7264L71.6108 87.7656L72.0119 87.9888L72.0698 88.0009L72.1161 87.9888L72.5172 87.7656L72.5635 87.7174L72.5789 87.6661L72.5133 86.3782C72.5031 86.346 72.4825 86.3279 72.4516 86.3239ZM73.4699 85.983L73.4159 85.9891L72.7062 86.2696L72.6676 86.2998L72.6561 86.3329L72.7255 87.6299L72.7448 87.6661L72.7756 87.6902L73.5509 87.9677C73.5998 87.9778 73.6371 87.9697 73.6628 87.9436L73.6782 87.9014L73.5471 86.0494C73.5342 86.0112 73.5085 85.9891 73.4699 85.983ZM70.712 85.9891C70.695 85.981 70.6747 85.9784 70.6553 85.9818C70.6359 85.9852 70.6189 85.9943 70.6079 86.0072L70.5848 86.0494L70.4536 87.9014C70.4562 87.9376 70.478 87.9617 70.5192 87.9737L70.577 87.9677L71.3523 87.6872L71.3909 87.6631L71.4025 87.6299L71.4719 86.3329L71.4603 86.2967L71.4218 86.2666L70.712 85.9891Z" fill="#C2C1EE"/>
<rect width="108.515" height="110" rx="10" fill="white"/>
<path fill-rule="evenodd" clip-rule="evenodd" d="M49.5326 16C44.4445 16 39.5648 18.0545 35.9669 21.7114C32.3691 25.3684 30.3478 30.3283 30.3478 35.5C30.3478 40.6717 32.3691 45.6316 35.9669 49.2886C39.5648 52.9455 44.4445 55 49.5326 55C54.6208 55 59.5005 52.9455 63.0984 49.2886C66.6962 45.6316 68.7175 40.6717 68.7175 35.5C68.7175 30.3283 66.6962 25.3684 63.0984 21.7114C59.5005 18.0545 54.6208 16 49.5326 16ZM49.5326 58.9C40.3431 58.9 31.9786 61.6066 25.8279 65.4208C22.7583 67.324 20.1339 69.5704 18.2384 72.0118C16.3736 74.4064 15 77.2807 15 80.35C15 83.6455 16.577 86.2429 18.8485 88.0954C20.9972 89.8504 23.8327 91.0126 26.8447 91.8238C32.8994 93.4501 40.9801 94 49.5326 94C50.4177 94 51.2938 93.9935 52.161 93.9805C52.8036 93.9715 53.4337 93.7986 53.9934 93.4777C54.5532 93.1568 55.0246 92.6981 55.3646 92.1437C55.7045 91.5893 55.902 90.9571 55.9389 90.3049C55.9758 89.6528 55.851 89.0016 55.5759 88.4113C54.1209 85.2812 53.3674 81.8619 53.3696 78.4C53.3696 73.5172 54.8392 68.9932 57.3485 65.2453C57.7215 64.6883 57.9462 64.0427 58.0007 63.3712C58.0551 62.6997 57.9375 62.0254 57.6593 61.4138C57.3811 60.8023 56.9518 60.2745 56.4131 59.8818C55.8745 59.489 55.245 59.2449 54.5859 59.173C52.9335 58.991 51.249 58.9 49.5326 58.9ZM79.7065 62.7883C79.3687 62.1991 78.8848 61.7103 78.3031 61.3705C77.7215 61.0307 77.0623 60.8519 76.3914 60.8519C75.7205 60.8519 75.0613 61.0307 74.4796 61.3705C73.8979 61.7103 73.414 62.1991 73.0762 62.7883L69.5846 68.8801L62.8085 70.3699C62.1524 70.5141 61.5451 70.8308 61.0471 71.2883C60.549 71.7457 60.1778 72.328 59.9704 72.9769C59.7631 73.6258 59.7268 74.3187 59.8653 74.9863C60.0038 75.6539 60.3121 76.2729 60.7596 76.7815L65.3793 82.0387L64.681 89.0509C64.6133 89.7295 64.7219 90.4142 64.9959 91.0368C65.2699 91.6594 65.6998 92.1981 66.2426 92.599C66.7855 93 67.4222 93.2493 68.0894 93.322C68.7567 93.3947 69.4309 93.2882 70.045 93.0133L76.3914 90.1663L82.7377 93.0133C83.3518 93.2882 84.0261 93.3947 84.6933 93.322C85.3605 93.2493 85.9973 93 86.5401 92.599C87.0829 92.1981 87.5128 91.6594 87.7868 91.0368C88.0609 90.4142 88.1695 89.7295 88.1018 89.0509L87.4035 82.0348L92.0232 76.7815C92.4706 76.2729 92.779 75.6539 92.9175 74.9863C93.0559 74.3187 93.0197 73.6258 92.8123 72.9769C92.6049 72.328 92.2337 71.7457 91.7357 71.2883C91.2377 70.8308 90.6303 70.5141 89.9742 70.3699L83.1981 68.8801L79.7065 62.7883Z" fill="#C2C1EE"/>
</svg>
