<svg width="48" height="42" viewBox="0 0 48 42" fill="none" xmlns="http://www.w3.org/2000/svg">
<path d="M43.5 39H4.5C2.01 39 0 36.99 0 34.5V7.5C0 5.01 2.01 3 4.5 3H43.5C45.99 3 48 5.01 48 7.5V34.5C48 36.99 45.99 39 43.5 39ZM4.5 6C3.66 6 3 6.66 3 7.5V34.5C3 35.34 3.66 36 4.5 36H43.5C44.34 36 45 35.34 45 34.5V7.5C45 6.66 44.34 6 43.5 6H4.5Z" fill="#8672D0"/>
<path d="M24.0003 26.8799C21.9003 26.8799 19.9803 26.0399 18.5403 24.5099L2.79026 7.76987C2.22026 7.16987 2.25026 6.20987 2.85026 5.63987C3.45026 5.06987 4.41026 5.09987 4.98026 5.69987L20.7303 22.4399C22.4403 24.2699 25.5603 24.2699 27.2703 22.4399L43.0203 5.72987C43.5903 5.12987 44.5503 5.09987 45.1503 5.66987C45.7503 6.23987 45.7803 7.19987 45.2103 7.79987L29.4603 24.5399C28.0203 26.0699 26.1003 26.9099 24.0003 26.9099V26.8799Z" fill="#8672D0"/>
</svg>
