<svg width="48" height="42" viewBox="0 0 48 42" fill="none" xmlns="http://www.w3.org/2000/svg">
<path d="M43.5 39H4.5C2.01 39 0 36.99 0 34.5V7.5C0 5.01 2.01 3 4.5 3H43.5C45.99 3 48 5.01 48 7.5V34.5C48 36.99 45.99 39 43.5 39ZM4.5 6C3.66 6 3 6.66 3 7.5V34.5C3 35.34 3.66 36 4.5 36H43.5C44.34 36 45 35.34 45 34.5V7.5C45 6.66 44.34 6 43.5 6H4.5Z" fill="#DDB7EF"/>
<path d="M23.9998 26.8799C21.8998 26.8799 19.9798 26.0399 18.5398 24.5099L2.78977 7.76987C2.21977 7.16987 2.24977 6.20987 2.84977 5.63987C3.44977 5.06987 4.40977 5.09987 4.97977 5.69987L20.7298 22.4399C22.4398 24.2699 25.5598 24.2699 27.2698 22.4399L43.0198 5.72987C43.5898 5.12987 44.5498 5.09987 45.1498 5.66987C45.7498 6.23987 45.7798 7.19987 45.2098 7.79987L29.4598 24.5399C28.0198 26.0699 26.0998 26.9099 23.9998 26.9099V26.8799Z" fill="#DDB7EF"/>
</svg>
