<svg width="30" height="30" viewBox="0 0 30 30" fill="none" xmlns="http://www.w3.org/2000/svg">
<path d="M14.499 4.5C14.6438 4.5 14.7975 4.54066 14.9648 4.64062C15.0958 4.71898 15.2017 4.83844 15.2773 5.02832L15.2783 5.03027L17.7969 11.2891L17.9111 11.5723L18.2148 11.6006L24.7119 12.1963C24.9501 12.2334 25.0917 12.3078 25.1768 12.3857C25.2873 12.4871 25.3787 12.6245 25.4443 12.8135C25.504 12.9854 25.5161 13.1581 25.4785 13.3408C25.4462 13.4978 25.3643 13.648 25.2061 13.7959L20.2754 18.2559L20.0596 18.4512L20.123 18.7354L21.6006 25.3809C21.6479 25.5963 21.6269 25.7592 21.5664 25.8926C21.4852 26.0715 21.3755 26.2132 21.2373 26.3252C21.1161 26.4234 20.975 26.4813 20.8008 26.4971C20.6579 26.51 20.5134 26.4769 20.3525 26.3691L20.3408 26.3613L14.7666 22.8457L14.499 22.6768L14.2324 22.8457L8.6582 26.3613L8.64746 26.3682C8.48604 26.4757 8.34051 26.5096 8.19629 26.4971C8.0234 26.482 7.88347 26.4245 7.7627 26.3262C7.62338 26.2126 7.51386 26.0699 7.43262 25.8916C7.37264 25.7599 7.351 25.5976 7.39844 25.3809L8.87598 18.7354L8.93848 18.4512L8.72266 18.2559L3.79199 13.7959C3.63522 13.6475 3.55379 13.496 3.52148 13.3389C3.48388 13.1556 3.49579 12.9832 3.55469 12.8125C3.61924 12.6256 3.71052 12.4883 3.82227 12.3857C3.90896 12.3063 4.05179 12.2312 4.29102 12.1953L10.7842 11.6006L11.0879 11.5723L11.2021 11.2891L13.7207 5.03027L13.7217 5.02832C13.7973 4.83841 13.9032 4.71897 14.0342 4.64062C14.2014 4.54076 14.3544 4.50007 14.499 4.5Z" fill="#FFF835" stroke="#DED702"/>
</svg>
