<svg width="28" height="25" viewBox="0 0 28 25" fill="none" xmlns="http://www.w3.org/2000/svg">
<g clip-path="url(#clip0_770_825)">
<g filter="url(#filter0_d_770_825)">
<path d="M12.6044 0.868783L9.43014 7.33363L2.32806 8.37367C1.05445 8.55921 0.544034 10.1364 1.46764 11.0397L6.60584 16.069L5.39056 23.1735C5.17181 24.4576 6.51834 25.4196 7.64612 24.819L13.9996 21.4645L20.3531 24.819C21.4808 25.4147 22.8274 24.4576 22.6086 23.1735L21.3933 16.069L26.5315 11.0397C27.4551 10.1364 26.9447 8.55921 25.6711 8.37367L18.569 7.33363L15.3947 0.868783C14.826 -0.283561 13.1781 -0.298209 12.6044 0.868783Z" fill="#FFF835"/>
<path d="M13.0527 1.08789C13.4411 0.299787 14.5584 0.304419 14.9463 1.08984L18.1201 7.55371L18.2363 7.79004L18.4971 7.82812L25.5986 8.86816C26.4592 8.99353 26.8118 10.0663 26.1816 10.6826L21.0439 15.7119L20.8564 15.8945L20.9004 16.1533L22.1152 23.2568V23.2578C22.2638 24.1314 21.3494 24.7794 20.5869 24.377L14.2334 21.0225L14 20.8994L13.7666 21.0225L7.41309 24.377L7.41113 24.3779C6.65207 24.7821 5.7347 24.1345 5.88379 23.2578L7.09863 16.1533L7.14258 15.8945L6.95605 15.7119L1.81738 10.6826C1.2265 10.1047 1.49939 9.12549 2.24512 8.90234L2.40039 8.86816L9.50293 7.82812L9.7627 7.79004L9.87891 7.55371L13.0537 1.08887L13.0527 1.08789Z" stroke="#DED702"/>
</g>
</g>
<defs>
<filter id="filter0_d_770_825" x="-7.00391" y="-0.000976562" width="42.0068" height="41.0029" filterUnits="userSpaceOnUse" color-interpolation-filters="sRGB">
<feFlood flood-opacity="0" result="BackgroundImageFix"/>
<feColorMatrix in="SourceAlpha" type="matrix" values="0 0 0 0 0 0 0 0 0 0 0 0 0 0 0 0 0 0 127 0" result="hardAlpha"/>
<feOffset dy="8"/>
<feGaussianBlur stdDeviation="4"/>
<feComposite in2="hardAlpha" operator="out"/>
<feColorMatrix type="matrix" values="0 0 0 0 0 0 0 0 0 0 0 0 0 0 0 0 0 0 0.25 0"/>
<feBlend mode="normal" in2="BackgroundImageFix" result="effect1_dropShadow_770_825"/>
<feBlend mode="normal" in="SourceGraphic" in2="effect1_dropShadow_770_825" result="shape"/>
</filter>
<clipPath id="clip0_770_825">
<rect width="28" height="25" rx="1" fill="white"/>
</clipPath>
</defs>
</svg>
