<svg width="42" height="41" viewBox="0 0 42 41" fill="none" xmlns="http://www.w3.org/2000/svg">
<g filter="url(#filter0_d_724_2513)">
<path d="M19.6049 0.869134L16.4306 7.33398L9.32849 8.37402C8.05488 8.55956 7.54446 10.1367 8.46807 11.04L13.6063 16.0693L12.391 23.1738C12.1722 24.458 13.5188 25.4199 14.6465 24.8193L21 21.4648L27.3535 24.8193C28.4813 25.415 29.8278 24.458 29.609 23.1738L28.3938 16.0693L33.532 11.04C34.4556 10.1367 33.9452 8.55956 32.6715 8.37402L25.5695 7.33398L22.3952 0.869134C21.8264 -0.28321 20.1785 -0.297858 19.6049 0.869134Z" fill="#FFF835"/>
<path d="M20.0532 1.08824C20.4415 0.300138 21.5589 0.30477 21.9467 1.09019L25.1205 7.55406L25.2368 7.79039L25.4975 7.82848L32.5991 8.86852C33.4596 8.99388 33.8122 10.0666 33.1821 10.683L28.0444 15.7123L27.8569 15.8949L27.9008 16.1537L29.1157 23.2572V23.2582C29.2642 24.1317 28.3498 24.7798 27.5873 24.3773L21.2338 21.0228L21.0004 20.8998L20.767 21.0228L14.4135 24.3773L14.4116 24.3783C13.6525 24.7824 12.7351 24.1349 12.8842 23.2582L14.0991 16.1537L14.143 15.8949L13.9565 15.7123L8.81781 10.683C8.22693 10.1051 8.49982 9.12584 9.24554 8.90269L9.40082 8.86852L16.5034 7.82848L16.7631 7.79039L16.8793 7.55406L20.0541 1.08922L20.0532 1.08824Z" stroke="#DED702"/>
</g>
<defs>
<filter id="filter0_d_724_2513" x="-0.003479" y="-0.00062561" width="42.007" height="41.0031" filterUnits="userSpaceOnUse" color-interpolation-filters="sRGB">
<feFlood flood-opacity="0" result="BackgroundImageFix"/>
<feColorMatrix in="SourceAlpha" type="matrix" values="0 0 0 0 0 0 0 0 0 0 0 0 0 0 0 0 0 0 127 0" result="hardAlpha"/>
<feOffset dy="8"/>
<feGaussianBlur stdDeviation="4"/>
<feComposite in2="hardAlpha" operator="out"/>
<feColorMatrix type="matrix" values="0 0 0 0 0 0 0 0 0 0 0 0 0 0 0 0 0 0 0.25 0"/>
<feBlend mode="normal" in2="BackgroundImageFix" result="effect1_dropShadow_724_2513"/>
<feBlend mode="normal" in="SourceGraphic" in2="effect1_dropShadow_724_2513" result="shape"/>
</filter>
</defs>
</svg>
