<svg width="46" height="46" viewBox="0 0 46 46" fill="none" xmlns="http://www.w3.org/2000/svg">
<path d="M38.3813 46H7.61875C5.0025 46 2.875 43.8725 2.875 41.2563V19.1188C2.875 16.5025 5.0025 14.375 7.61875 14.375H38.3813C40.9975 14.375 43.125 16.5025 43.125 19.1188V41.2275C43.125 43.8438 40.9975 45.9712 38.3813 45.9712V46ZM7.61875 17.25C6.58375 17.25 5.75 18.0838 5.75 19.1188V41.2275C5.75 42.2625 6.58375 43.0962 7.61875 43.0962H38.3813C39.4163 43.0962 40.25 42.2625 40.25 41.2275V19.1188C40.25 18.0838 39.4163 17.25 38.3813 17.25H7.61875Z" fill="#DDB7EF"/>
<path d="M36.0523 17.25H9.94727V13.0525C9.94727 5.865 15.8123 0 22.9998 0C30.1873 0 36.0523 5.865 36.0523 13.0525V17.25ZM12.8223 14.375H33.1773V13.0525C33.1773 7.44625 28.606 2.875 22.9998 2.875C17.3935 2.875 12.8223 7.44625 12.8223 13.0525V14.375Z" fill="#DDB7EF"/>
<path d="M34.5 33.0625C36.0878 33.0625 37.375 31.7753 37.375 30.1875C37.375 28.5997 36.0878 27.3125 34.5 27.3125C32.9122 27.3125 31.625 28.5997 31.625 30.1875C31.625 31.7753 32.9122 33.0625 34.5 33.0625Z" fill="#DDB7EF"/>
<path d="M23 33.0625C24.5878 33.0625 25.875 31.7753 25.875 30.1875C25.875 28.5997 24.5878 27.3125 23 27.3125C21.4122 27.3125 20.125 28.5997 20.125 30.1875C20.125 31.7753 21.4122 33.0625 23 33.0625Z" fill="#DDB7EF"/>
<path d="M11.5 33.0625C13.0878 33.0625 14.375 31.7753 14.375 30.1875C14.375 28.5997 13.0878 27.3125 11.5 27.3125C9.91218 27.3125 8.625 28.5997 8.625 30.1875C8.625 31.7753 9.91218 33.0625 11.5 33.0625Z" fill="#DDB7EF"/>
</svg>
