<svg width="20" height="17" viewBox="0 0 20 17" fill="none" xmlns="http://www.w3.org/2000/svg">
<path d="M11 4.75V2.875C11 2.37772 10.8084 1.90081 10.4675 1.54917C10.1265 1.19754 9.66403 1 9.18182 1H2.81818C2.33597 1 1.87351 1.19754 1.53253 1.54917C1.19156 1.90081 1 2.37772 1 2.875V14.125C1 14.6223 1.19156 15.0992 1.53253 15.4508C1.87351 15.8025 2.33597 16 2.81818 16H9.18182C9.66403 16 10.1265 15.8025 10.4675 15.4508C10.8084 15.0992 11 14.6223 11 14.125V12.25" stroke="#DDB7EF" stroke-width="2" stroke-linecap="round" stroke-linejoin="round"/>
<path d="M7.4375 9.5H18.4375M18.4375 9.5L15.6875 7M18.4375 9.5L15.6875 12" stroke="#DDB7EF" stroke-width="2" stroke-linecap="round" stroke-linejoin="round"/>
</svg>
