<svg width="28" height="25" viewBox="0 0 28 25" fill="none" xmlns="http://www.w3.org/2000/svg">
<path d="M12.8295 0.979858C13.3101 0.0021052 14.6916 0.010701 15.1703 0.978882L18.3452 7.44373L18.4028 7.56189L18.5336 7.58142L25.6352 8.62146C26.7023 8.77692 27.1338 10.1019 26.3569 10.8617L21.2192 15.891L21.1254 15.9828L21.1469 16.1117L22.3627 23.2162C22.5462 24.295 21.4153 25.0972 20.4702 24.598L14.1166 21.2435L14.0004 21.182L13.8832 21.2435L7.52972 24.598L7.52875 24.599C6.58546 25.101 5.45346 24.2964 5.63715 23.2162L6.85297 16.1117L6.87445 15.9828L6.7807 15.891L1.64301 10.8617C0.914575 10.1493 1.24824 8.93965 2.1723 8.66345L2.36469 8.62146L9.46722 7.58142L9.59711 7.56189L9.65472 7.44373L12.8295 0.979858ZM13.7758 3.21521L10.81 9.24841L4.18304 10.2162L3.68402 10.2894L4.04437 10.6429L8.84125 15.3363L7.71136 21.9652L7.6264 22.4642L8.07465 22.2279L13.9995 19.101L19.9252 22.2279L20.3745 22.4642L20.2885 21.9652L19.1586 15.3353L23.9555 10.6429L24.3159 10.2894L23.8168 10.2162L17.1899 9.24841L14.2241 3.21521L14.0004 2.75818L13.7758 3.21521Z" fill="#FFF835" stroke="#DED702" stroke-width="0.5"/>
</svg>
