<svg width="29" height="28" viewBox="0 0 29 28" fill="none" xmlns="http://www.w3.org/2000/svg">
<path d="M23.75 21.7093C23.4185 21.7093 23.1005 21.8318 22.8661 22.0499C22.6317 22.2679 22.5 22.5637 22.5 22.8721V25.3837C22.5 25.4608 22.4671 25.5348 22.4085 25.5893C22.3499 25.6438 22.2704 25.6744 22.1875 25.6744H2.8125C2.73377 25.6747 2.65785 25.6472 2.59992 25.5977C2.54198 25.5481 2.5063 25.48 2.5 25.407V5.63953C2.5 5.56244 2.53292 5.4885 2.59153 5.43398C2.65013 5.37946 2.72962 5.34884 2.8125 5.34884H4.375C4.70652 5.34884 5.02446 5.22633 5.25888 5.00826C5.4933 4.7902 5.625 4.49444 5.625 4.18605C5.625 3.87766 5.4933 3.58189 5.25888 3.36383C5.02446 3.14576 4.70652 3.02326 4.375 3.02326H2.5C1.83696 3.02326 1.20107 3.26827 0.732233 3.7044C0.263392 4.14053 0 4.73205 0 5.34884L0 25.6744C0 26.2912 0.263392 26.8827 0.732233 27.3189C1.20107 27.755 1.83696 28 2.5 28H22.5C23.163 28 23.7989 27.755 24.2678 27.3189C24.7366 26.8827 25 26.2912 25 25.6744V22.8721C25 22.5637 24.8683 22.2679 24.6339 22.0499C24.3995 21.8318 24.0815 21.7093 23.75 21.7093ZM20.625 5.32558H22.1875C22.2704 5.32558 22.3499 5.35621 22.4085 5.41072C22.4671 5.46524 22.5 5.53918 22.5 5.61628V6.48837C22.5 6.79676 22.6317 7.09252 22.8661 7.31059C23.1005 7.52865 23.4185 7.65116 23.75 7.65116C24.0815 7.65116 24.3995 7.52865 24.6339 7.31059C24.8683 7.09252 25 6.79676 25 6.48837V5.32558C25 4.7088 24.7366 4.11728 24.2678 3.68115C23.7989 3.24502 23.163 3 22.5 3H20.625C20.2935 3 19.9755 3.12251 19.7411 3.34057C19.5067 3.55864 19.375 3.8544 19.375 4.16279C19.375 4.47118 19.5067 4.76694 19.7411 4.98501C19.9755 5.20307 20.2935 5.32558 20.625 5.32558Z" fill="#493D78"/>
<path d="M7.75064 6.70798H15.2519C15.7493 6.70798 16.2263 6.51524 16.578 6.17215C16.9297 5.82906 17.1272 5.36373 17.1272 4.87853V4.26872C17.1272 3.78352 16.9297 3.31819 16.578 2.9751C16.2263 2.63201 15.7493 2.43927 15.2519 2.43927H14.0017C14.0017 1.79233 13.7383 1.1719 13.2694 0.714445C12.8004 0.256993 12.1644 0 11.5013 0C10.8381 0 10.2021 0.256993 9.73322 0.714445C9.26429 1.1719 9.00086 1.79233 9.00086 2.43927H7.75064C7.25328 2.43927 6.77628 2.63201 6.42459 2.9751C6.0729 3.31819 5.87532 3.78352 5.87532 4.26872V4.87853C5.87532 5.36373 6.0729 5.82906 6.42459 6.17215C6.77628 6.51524 7.25328 6.70798 7.75064 6.70798ZM4 12.1963C4 12.5198 4.13172 12.83 4.36618 13.0587C4.60064 13.2875 4.91864 13.416 5.25021 13.416H15.2519C15.5835 13.416 15.9015 13.2875 16.136 13.0587C16.3704 12.83 16.5021 12.5198 16.5021 12.1963C16.5021 11.8729 16.3704 11.5626 16.136 11.3339C15.9015 11.1052 15.5835 10.9767 15.2519 10.9767H5.25021C4.91864 10.9767 4.60064 11.1052 4.36618 11.3339C4.13172 11.5626 4 11.8729 4 12.1963ZM5.25021 17.0749C4.91864 17.0749 4.60064 17.2034 4.36618 17.4321C4.13172 17.6608 4 17.971 4 18.2945C4 18.618 4.13172 18.9282 4.36618 19.1569C4.60064 19.3856 4.91864 19.5141 5.25021 19.5141H10.8762C11.2078 19.5141 11.5258 19.3856 11.7602 19.1569C11.9947 18.9282 12.1264 18.618 12.1264 18.2945C12.1264 17.971 11.9947 17.6608 11.7602 17.4321C11.5258 17.2034 11.2078 17.0749 10.8762 17.0749H5.25021ZM28.2667 10.0498C27.7982 9.59546 27.1644 9.34046 26.5039 9.34046C25.8433 9.34046 25.2095 9.59546 24.7411 10.0498L14.9019 19.6483C14.8405 19.7063 14.7934 19.7772 14.7643 19.8556L12.989 24.1609C12.9449 24.272 12.9344 24.3932 12.9588 24.5099C12.9831 24.6267 13.0414 24.7341 13.1266 24.8195C13.2123 24.9054 13.3226 24.9641 13.443 24.988C13.5633 25.0119 13.6883 25 13.8017 24.9537L18.2274 23.234C18.3056 23.2014 18.3774 23.156 18.44 23.0999L28.2667 13.5013C28.4991 13.2748 28.6836 13.0058 28.8094 12.7097C28.9352 12.4135 29 12.0961 29 11.7756C29 11.455 28.9352 11.1376 28.8094 10.8415C28.6836 10.5453 28.4991 10.2763 28.2667 10.0498Z" fill="#493D78"/>
</svg>
